<svg width="502" height="502" viewBox="0 0 502 502" fill="none" xmlns="http://www.w3.org/2000/svg">
<g clip-path="url(#clip0_377_2)">
<path d="M240 5.46666C236.666 12 232 29.3333 232 35.3333C232 39.3333 231.6 39.7333 227.066 40.5333C215.733 42.4 215.733 42.2666 210.266 30.2666C207.467 24.1333 202.667 16.4 199.6 12.9333L194 6.8L186.667 8.79999C182.667 9.86666 178.933 11.2 178.4 11.7333C176.267 13.8667 174.4 28.9333 175.333 37.3333C175.733 42.1333 176.267 47.3333 176.4 49.0666C176.667 51.6 175.467 52.6666 169.333 55.3333L162 58.5333L159.333 54.9333C154.533 48.2666 143.867 37.6 138.533 33.8666L133.067 30.1333L125.867 34L118.667 37.8666V45.4666C118.667 52.8 122.4 67.7333 126.133 74.9333C127.867 78.2666 127.733 78.5333 121.733 83.0666L115.467 87.7333L109.333 82.6666C103.067 77.3333 89.8666 70.1333 83.7333 68.6666C80.6666 67.8666 79.1999 68.6666 74.1333 73.8666L67.9999 79.8666L70.9333 87.5999C73.8666 95.8666 77.9999 103.067 83.9999 110.667L87.7333 115.333L83.0666 121.867C79.8666 126.133 77.5999 128 76.1333 127.467C74.9333 127.2 69.9999 125.333 65.0666 123.467C60.1333 121.6 52.2666 119.733 47.4666 119.2L38.9333 118.267L35.6 123.467C30.6666 131.333 30.1333 134.267 32.8 138.4C36.6666 144.267 46.9333 154.8 52.9333 158.8L58.5333 162.667L55.8666 169.067C54.3999 172.533 52.7999 175.733 52.2666 176.267C51.7333 176.8 47.1999 176.667 42 176C31.0666 174.667 13.4666 176.267 11.8666 178.933C11.2 179.867 9.99997 183.867 9.06664 187.867L7.46664 195.067L12.8 199.733C15.6 202.133 23.4666 206.933 30.1333 210.133L42.2666 215.867L41.2 222.267C40.6666 225.733 40.1333 229.467 40.1333 230.267C40 231.333 37.8666 232 34.4 232C27.3333 232 16.1333 234.933 7.73331 238.8L1.33331 241.733V260L6.39998 262.533C13.2 266 26.4 269.333 33.2 269.333C39.4666 269.333 40.6666 271.066 41.4666 281.066L42 286.8L33.2 290.533C24 294.4 14.2666 300.533 10.2666 305.066C7.99997 307.466 7.99998 308.666 9.19997 314.933C11.7333 326.533 10.6666 326 33.2 326H53.0666L55.9999 332.666L58.7999 339.333L55.0666 342C47.9999 347.2 38.2666 356.666 34.4 362.4L30.5333 368L33.4666 374C38.4 384 39.6 384.533 50.9333 382.666C56.2666 381.733 64.6666 379.333 69.5999 377.333L78.6666 373.6L83.3333 380.133L88.1333 386.533L82.7999 393.6C76.3999 402.133 70.6666 413.2 69.8666 419.066C69.1999 422.666 69.8666 424.133 74.3999 428.533C79.1999 433.2 80.2666 433.6 84.5333 432.8C90.6666 431.6 103.067 425.066 110.267 419.2L116 414.4L121.733 418.8C124.8 421.2 127.733 423.466 128.4 424C128.933 424.533 127.867 428.266 125.867 432.533C124 436.666 121.6 445.2 120.4 451.466C118.533 462.8 118.533 462.8 121.6 465.333C123.333 466.666 126.933 468.8 129.6 470.133C134.533 472.4 134.667 472.4 140 468.8C146.533 464.533 155.2 455.866 159.6 449.066L162.933 444.133L169.733 446.8C173.6 448.4 176.8 449.733 177.067 450C177.333 450.266 176.933 454.8 176.133 460.266C174.533 472 176.267 487.866 179.467 490.266C180.667 491.066 184.667 492.533 188.4 493.466L195.2 495.066L199.733 489.866C204.267 484.666 214.667 464.933 214.667 461.6C214.667 460.266 216.133 460 221.066 460.666C231.733 462.133 231.333 461.733 233.6 474.666C234.8 481.2 237.333 489.866 239.2 494L242.533 501.333H251.2C258.666 501.333 260.133 500.933 262 498.266C264.933 494.133 269.333 479.466 270.266 470.266C271.066 461.866 271.333 461.733 281.733 461.066L286.8 460.666L290.666 470C294.666 479.333 302.666 491.2 306.8 493.733C308.4 494.666 311.2 494.4 316.8 492.533C324.533 490 324.666 489.866 325.733 484C326.4 480.666 326.533 471.6 326.133 463.866L325.466 449.6L332 446.8C335.6 445.2 338.8 444 339.066 444C339.333 444 342.4 447.6 346 452C352.933 461.066 364.8 470.666 368.8 470.666C370.266 470.666 374.266 468.933 377.733 466.666C382.266 463.866 384 461.866 384 459.733C383.866 453.733 380 438.266 376.8 431.2L373.466 424L379.2 419.333C382.4 416.8 385.333 414.666 385.866 414.666C386.4 414.666 389.733 417.066 393.333 419.866C400.133 425.333 411.2 431.066 417.866 432.8C421.066 433.6 422.4 432.8 427.466 427.866C430.666 424.666 433.333 421.2 433.333 420C433.333 416.533 425.466 401.066 419.866 393.733C417.066 389.866 414.666 386.4 414.666 385.866C414.666 385.333 416.8 382.4 419.333 379.333L424 373.6L434.266 377.6C442.133 380.666 447.066 381.733 454.4 381.866L464.133 382L467.6 375.866C470.266 371.333 470.8 368.933 470.133 366.133C469.2 362.4 452.933 344.933 446.933 341.2L443.733 339.333L446.4 332.666L449.066 326L460.266 326.4C472.133 326.933 486.4 325.866 488.933 324.266C489.866 323.733 491.466 319.733 492.666 315.333L494.8 307.333L489.2 302.266C484.4 298 469.6 289.866 462.266 287.466C460.133 286.8 460 285.733 460.666 280.4C462 270.933 461.866 271.066 470.266 270.133C479.6 269.066 488.4 266.533 495.866 262.8L501.333 260V242.667L495.866 240C489.6 236.8 472 232 466.4 232C462.133 232 461.866 231.467 460.666 222.267L459.866 216L464.933 214C474.133 210.4 483.866 204.933 489.333 200L494.8 195.333L493.333 188.533C490.8 176.533 490.933 176.667 468.8 176.667H449.466L446.666 170L443.866 163.333L447.6 160.667C454 156.133 464.933 145.467 468.666 140L472.266 134.8L468.4 127.733L464.666 120.667L454.666 120.8C446.8 120.8 442.4 121.733 434.4 124.933L424 129.067L419.2 122.533L414.4 116L418.4 111.333C423.6 105.467 428.933 96.3999 432.133 87.9999L434.666 81.3333L429.2 75.3333C426 71.8666 422.533 69.3333 420.8 69.3333C416.666 69.3333 401.733 76.7999 393.6 82.7999L386.533 88.1333L380.533 83.3333C377.333 80.6666 374.666 77.8666 374.666 77.1999C374.666 76.5333 375.733 73.7333 377.2 70.9333C380.266 64.6666 384 50 384 43.6C384 39.0666 383.466 38.4 377.066 34.6666C373.2 32.5333 369.333 30.6666 368.666 30.6666C364.666 30.6666 346.4 48.2666 341.6 56.8C340.666 58.4 339.333 58.2666 332.8 55.3333L325.066 52L326.133 42.9333C327.466 32.5333 327.466 30 326.133 19.6C325.066 11.0667 323.733 9.99999 312.533 8.39999C307.466 7.73333 306.533 8 302.8 12.1333C298.533 16.8 288 36.2666 288 39.4666C288 41.4666 283.866 41.8666 275.866 40.5333L271.066 39.7333L269.466 28.9333C268.533 22.4 266.4 14.6667 263.866 9.06666L259.6 0H242.666L240 5.46666ZM276.4 53.4666C290.4 55.6 310.533 60.6666 320.933 64.8C343.066 73.4666 374.533 92.6666 377.6 99.3333C378.933 102.267 378.266 103.467 371.2 111.6C359.2 125.333 353.866 130.667 352.4 130.667C351.6 130.667 346 127.333 340 123.2C293.333 91.3333 236.933 86.5333 184.667 109.867C180.4 111.867 170.933 117.333 163.867 122C156.667 126.8 150.267 130.667 149.467 130.667C147.333 130.667 124 104 124 101.467C124 94.3999 158.267 72.7999 183.067 64.1333C208 55.4666 224.933 52.4 249.733 52.1333C259.2 52.1333 271.2 52.6666 276.4 53.4666ZM230.533 112.533C231.733 114 231.733 118.8 230.8 132.267C230 142 228.666 160.533 227.866 173.333C226.266 198.267 225.067 202.667 219.467 202.667C216 202.667 142.533 167.333 141.067 164.933C139.2 162 140 160.933 150.4 151.067C167.867 134.267 186.4 123.067 209.866 115.333C224.933 110.267 228.266 109.867 230.533 112.533ZM290.533 114.133C304.4 118.4 321.6 126.933 334 135.733C346.266 144.4 361.333 159.333 361.333 162.667C361.333 164.667 357.866 166.933 346.4 172.533C292.533 198.4 283.6 202.667 282.133 202.667C277.6 202.667 276.133 198 274.8 179.333C271.866 140.8 270.4 114.667 271.2 112.667C272.266 109.733 277.6 110.133 290.533 114.133ZM124.4 127.867C131.467 135.067 137.333 141.867 137.333 143.067C137.333 144.267 134.8 148 131.733 151.6C124.533 159.867 112.8 177.867 109.2 186.133C98.6666 210.4 95.3332 228.933 96.6666 255.866C97.1999 266.666 97.7333 278.666 97.7333 282.666L97.9999 290L85.3333 294.266C69.4666 299.466 61.8666 300.8 59.4666 298.8C52.7999 293.333 50.5333 238.933 55.8666 213.333C61.5999 186 71.1999 162.667 85.4666 141.333C94.9332 127.2 106.133 114.667 109.2 114.667C110.4 114.667 117.333 120.533 124.4 127.867ZM402.8 122.267C417.466 138.267 432.133 164.133 439.866 187.333C447.066 209.067 449.733 226.133 449.733 250.666C449.733 272.8 446.933 294.4 443.6 298.533C441.6 300.933 436 300 418.933 294.8C408.8 291.6 404.933 289.866 404.266 287.866C403.733 286.4 404 280.266 404.933 274.266C411.6 229.867 400.8 189.2 373.2 154.8C368.933 149.333 365.333 144 365.333 142.933C365.333 140.133 390.666 114.667 393.466 114.667C394.666 114.667 398.933 118.133 402.8 122.267ZM135.467 207.6C142.8 212.667 158.8 223.467 170.933 231.733C183.2 240.133 193.6 248.133 194 249.6C194.533 251.2 194 253.2 192.4 254.933C188.267 259.6 124.267 302.666 121.6 302.666C117.733 302.666 116.533 300.533 113.333 286.666C109.6 271.2 108.4 244.933 110.533 230.667C113.733 210.4 117.6 198.667 121.333 198.667C121.867 198.667 128.267 202.667 135.467 207.6ZM385.066 202.267C389.6 214.267 393.333 235.867 393.333 250.666C393.333 272.266 386.4 302.666 381.466 302.666C379.066 302.666 316.666 261.066 311.066 255.733C304.933 250 306.933 247.466 330 232C338.133 226.533 352.4 216.8 361.866 210.4C371.466 203.867 380.133 198.667 381.466 198.667C382.666 198.667 384.266 200.267 385.066 202.267ZM271.2 205.733C303.066 220.4 310.4 261.733 285.6 286.533C266 306.133 234.8 305.733 215.866 285.733C208 277.466 206 274.133 203.2 264.533C197.6 244.933 205.6 222 222.133 210.533C236.4 200.667 256 198.8 271.2 205.733ZM323.066 317.333C356.266 333.466 361.333 336.4 361.333 338.933C361.333 340.933 358.266 344.933 352.4 350.533C334.533 367.333 312.266 380.533 290.533 387.2C277.6 391.2 272.266 391.6 271.066 388.666C270.4 386.666 271.333 368.666 274.8 324C276.266 304 277.866 298.666 282.533 298.666C283.866 298.666 302.133 307.066 323.066 317.333ZM225.333 302.133C226.4 303.333 227.6 310.266 228.133 318.666C228.8 326.666 230.133 345.6 231.333 360.8C233.466 389.6 233.2 392 227.866 392C223.733 392 198.267 383.2 189.2 378.666C177.2 372.533 166.267 365.066 154.933 354.933C142.533 344 140.4 340.8 142.8 337.733C145.467 334.666 216 300.266 220.133 300.133C222.133 300 224.4 300.933 225.333 302.133ZM103.067 306.133C104.267 306.533 108.133 313.066 111.867 320.666C139.867 377.866 201.067 412.266 264.666 406.533C302.666 403.066 334.933 387.733 361.6 360.533C374.133 347.866 381.333 337.733 390 321.066C394.133 313.2 398 306.4 398.8 306C400 305.2 413.2 309.066 429.066 314.933C435.066 317.2 436 318 436 321.2C436 323.2 433.333 330.4 430 337.066C401.866 394.933 348.266 435.733 285.066 447.466C266.4 451.066 231.733 450.666 213.333 446.8C151.333 433.733 102 396.133 73.7333 340.133C65.1999 323.333 63.9999 319.6 67.0666 317.733C68.6666 316.666 98.5332 305.6 100.267 305.466C100.667 305.333 102 305.733 103.067 306.133Z" fill="#EE9D00"/>
<path d="M228.8 58.7999C219.867 60.1333 219.333 60.3999 220.533 63.3333C221.067 64.9333 222.4 65.1999 225.867 64.6666L230.4 63.7333L231.2 70.9333C233.6 89.9999 233.467 89.3332 236.8 89.3332C239.867 89.3332 240 89.0666 239.333 81.5999C238.933 77.4666 238.267 71.8666 238 69.1999C237.333 63.8666 238.667 62.6666 244.933 62.6666C247.333 62.6666 248.133 61.9999 247.733 60.2666C247.2 57.5999 240.667 56.9333 228.8 58.7999ZM257.866 72.9332C253.867 81.3332 250.667 88.3999 250.667 88.5332C250.667 89.8666 256.667 87.9999 258 86.2666C259.067 84.6666 261.6 83.9999 265.866 83.9999C271.2 83.9999 272.266 84.3999 273.333 87.3332C274.266 89.7332 275.6 90.6666 278 90.6666C280 90.6666 281.066 90.1332 280.666 89.3332C280.266 88.6666 278.666 83.4666 277.2 77.7332C272.666 60.1333 272.133 59.0666 268.4 58.2666C265.2 57.7333 264.666 58.5333 257.866 72.9332ZM270.4 73.5999L271.733 78.6666H267.2C262 78.6666 261.733 77.8666 264.933 71.3332C267.466 65.9999 268.533 66.5333 270.4 73.5999ZM294 70.2666C292.8 74.5332 290.8 81.1999 289.733 84.9332C287.333 92.5332 287.333 92.5332 291.6 93.8666C294.133 94.6666 294.666 94.1332 296 89.4666C298.266 81.0666 303.066 82.3999 304.4 91.7332C305.2 98.2666 305.066 97.9999 308.8 99.1999C311.466 99.9999 311.6 99.7332 310.666 93.7332C309.733 87.9999 310 87.0666 312.8 84.3999C316.4 81.0666 317.333 71.9999 314.133 69.4666C312.8 68.2666 298.133 62.6666 296.533 62.6666C296.4 62.6666 295.2 66.1333 294 70.2666ZM307.333 72.2666C310.8 73.8666 311.333 75.4666 309.466 78.5332C308.666 79.8666 306.933 80.1332 303.466 79.4666C298 78.3999 298.266 78.6666 300 74.1332C301.466 70.2666 302.4 69.9999 307.333 72.2666ZM197.733 65.3333C192.4 66.5333 189.733 68.5332 187.2 73.4666C181.6 84.5332 191.333 97.5999 203.733 95.4666C212.667 94.1332 218.267 84.5332 215.733 75.1999C213.867 67.7333 206.133 63.5999 197.733 65.3333ZM208.667 73.3332C212.4 77.4666 211.867 83.8666 207.467 87.5999C202.933 91.4666 199.733 91.4666 195.2 87.5999C187.867 81.3332 191.733 70.6666 201.333 70.6666C204.533 70.6666 207.067 71.5999 208.667 73.3332ZM326.8 74.2666C326.8 74.9332 327.6 79.1999 328.533 83.9999C330.133 92.2666 330.133 92.9332 327.066 98.9332C323.333 106.533 323.333 106.267 326.666 108C328.933 109.2 329.6 108.667 332.666 102.667C335.733 96.6666 337.066 95.3332 344.666 91.9999C349.466 89.8666 353.333 87.8666 353.333 87.4666C353.333 87.0666 352.133 86.1332 350.666 85.3332C348.666 84.2666 346.8 84.5332 342.666 86.6666C336.133 89.9999 334.666 89.3332 334.666 83.1999C334.666 80.3999 333.6 77.5999 332 75.9999C329.333 73.3332 326.533 72.3999 326.8 74.2666ZM157.067 81.9999C153.6 83.8666 150.533 85.8666 150 86.5332C149.467 87.5999 160.267 108.8 163.6 113.2C163.867 113.467 165.467 112.933 167.333 112L170.667 110.267L168 106C164.8 100.667 164.667 100.4 167.733 98.7999C169.6 97.7332 171.333 98.2666 174.933 100.8C178.267 103.2 180.667 104 182.533 103.333C186.4 102.133 186 101.2 180.667 97.4666C176.8 94.9332 176 93.4666 176 89.7332C176 84.3999 171.067 78.6666 166.4 78.6666C164.667 78.7999 160.533 80.2666 157.067 81.9999ZM167.733 85.5999C170.4 88.2666 169.6 91.9999 165.867 93.5999C162.8 95.0666 162 94.9332 159.867 92.1332C157.2 88.9332 157.2 88.9332 160.933 86.5332C165.467 83.5999 165.733 83.5999 167.733 85.5999ZM238.667 207.866C226.8 211.466 216.933 219.866 211.067 231.066C207.733 237.333 207.333 239.333 207.333 251.333C207.333 263.2 207.733 265.466 210.933 271.333C215.2 279.6 224.667 288.533 233.067 292.4C237.867 294.666 241.867 295.333 250.667 295.333C260.933 295.333 262.933 294.933 270.933 290.933C286.8 283.066 294.933 269.733 295.066 251.066C295.2 241.2 294.8 239.333 290.666 231.2C285.066 220.266 275.333 211.733 265.067 208.666C257.867 206.533 244.4 206.133 238.667 207.866ZM258.667 218.4C258.667 221.6 259.6 222.666 264.133 224.666C273.867 229.066 281.333 240.8 281.333 251.466C281.333 262.533 273.6 274.133 263.333 278.8C242.667 288.266 218.533 269.066 222.267 246.133C223.467 238.666 230.267 229.333 236.933 226C241.333 223.866 242.533 222.533 242.667 219.866C242.667 215.066 243.467 214.666 251.6 214.666C258.533 214.666 258.667 214.8 258.667 218.4ZM95.0666 338.133C88.2666 342.133 82.6666 346 82.6666 346.533C82.6666 347.2 83.6 348.4 84.6666 349.333C86.2666 350.666 88.8 349.6 98.6666 344C111.867 336.266 112.4 335.866 111.2 332.8C110 329.6 108.4 330.133 95.0666 338.133ZM417.866 338.4C415.866 341.866 414.133 344.8 414 345.066C413.733 345.333 408.666 342.8 402.666 339.333C394.133 334.666 391.2 333.6 389.866 334.8C388.8 335.6 388 336.8 388 337.333C388 338.133 413.866 353.333 415.2 353.333C416 353.333 425.333 336.133 425.333 334.8C425.333 334.133 424.533 333.333 423.466 332.933C422.133 332.4 420.266 334.266 417.866 338.4ZM104.8 348.666C90.8 358.133 90.1333 358.8 92.4 361.733C93.8666 364 94.5333 363.733 100.667 359.333C104.4 356.8 107.733 354.666 108.267 354.666C108.8 354.666 107.733 358.933 105.867 364.266C102.133 375.466 102.133 374.8 104.533 378C106.267 380.266 107.067 379.866 118.533 370.133C128.4 361.733 130.533 359.333 129.2 357.866C126.933 355.066 125.867 355.466 119.333 361.466C116 364.533 113.333 366.4 113.333 365.733C113.333 365.066 114.8 360.266 116.533 355.2C119.067 347.6 119.333 345.466 118 343.6C117.067 342.4 116.133 341.333 115.867 341.466C115.6 341.466 110.533 344.666 104.8 348.666ZM376.8 353.2C374.533 355.733 374.8 356.4 383.066 369.866C391.066 382.933 391.733 383.733 393.733 381.6C395.2 380 395.466 378.666 394.4 376.933C393.466 375.2 393.733 373.733 395.2 371.6C400 364.666 401.2 363.733 403.733 364.533C405.2 365.066 407.066 364.4 408.4 362.933C410.533 360.666 409.866 360.266 395.6 355.6C387.333 352.933 380.266 350.666 379.866 350.666C379.466 350.666 378 351.866 376.8 353.2ZM390.533 360.133C395.333 361.866 395.6 362.8 392.133 365.866C389.733 368 389.466 368 386.8 364.266C382.533 358.133 383.066 357.6 390.533 360.133ZM133.333 366C131.867 367.733 132.133 368.533 134.533 371.066C138 374.933 138 376.266 134.533 379.466C132.933 380.8 129.333 384.8 126.533 388.133C121.6 394.133 121.467 394.4 123.867 396.533C126.133 398.666 126.667 398.266 134 389.733C138.267 384.666 142.133 380.533 142.8 380.266C143.467 380 145.6 381.066 147.6 382.666C150.8 385.2 151.333 385.2 152.4 383.2C153.2 381.733 153.067 380.533 151.867 379.466C150.8 378.533 146.667 374.666 142.533 370.933C136 364.8 134.8 364.266 133.333 366ZM363.066 367.733C361.866 369.6 362.533 370.933 367.066 375.6C370 378.8 372.133 381.6 371.733 382C371.333 382.533 366.533 381.6 361.333 380C353.066 377.6 351.333 377.333 349.866 378.933C348.266 380.533 349.333 382.533 356.8 392.8C361.6 399.333 366.133 404.933 366.8 405.066C367.466 405.333 368.933 404.933 370 404C371.6 402.666 371.066 401.333 366.666 395.466C363.733 391.6 361.333 388.133 361.333 387.733C361.333 387.333 365.866 388.4 371.466 390.133C379.6 392.666 382.133 392.933 384.133 391.6C385.466 390.8 386.666 389.466 386.666 388.666C386.666 387.866 381.733 382.4 375.6 376.266C365.866 366.533 364.4 365.6 363.066 367.733ZM152.533 396.933C148.267 403.333 144.267 409.333 143.6 410.266C142.933 411.2 146 413.866 152.667 417.866C162 423.6 162.667 423.733 164 421.333C165.2 419.2 164.4 418.4 158.667 415.2C151.6 411.333 150.933 410.133 154 406.133C155.733 403.733 156 403.733 160.667 406.666C164.8 409.2 165.867 409.333 166.8 407.866C168.533 405.066 168.4 404.933 163.333 402C158.933 399.466 158.667 399.066 160.533 396.666C162.533 394 162.667 394 169.067 397.6C175.2 400.933 175.6 400.933 177.067 398.666C178.4 396.533 177.867 395.733 172.933 393.066C169.867 391.333 165.733 388.8 163.867 387.6L160.4 385.333L152.533 396.933ZM327.2 394.533C318.8 399.733 318.266 411.733 326.133 418.666C332.533 424.266 339.466 424.133 345.866 418.533C360.533 405.733 343.866 384.4 327.2 394.533ZM342.933 399.6C348.133 405.466 346.533 413.333 339.733 416.133C329.333 420.4 320.666 405.733 329.733 399.333C333.6 396.666 340.533 396.8 342.933 399.6ZM184.133 402.933C183.467 404.666 180.8 411.066 178.133 417.2C175.467 423.333 173.467 428.533 173.6 428.666C173.867 428.8 175.2 429.333 176.8 429.866C179.2 430.533 180 429.866 181.867 424.666C184.4 418 184.4 418.133 188.133 420C190.133 421.066 190.667 422.8 190.667 428C190.667 433.2 191.2 434.933 193.2 436C197.333 438.133 197.6 437.733 197.067 430.8C196.667 425.066 197.067 423.866 200.4 420.8C203.467 418 204.133 416.4 203.733 412.266C203.333 407.866 202.667 407.066 197.333 404.533C187.067 399.6 185.467 399.466 184.133 402.933ZM198.267 411.466C198.667 412.533 198.267 414.266 197.467 415.2C196.133 416.8 194.933 416.8 191.6 415.733C186.133 413.866 186.4 414.266 187.867 410.266C189.067 407.066 189.6 406.933 193.333 408.266C195.733 409.066 197.867 410.533 198.267 411.466ZM305.066 403.6C303.733 403.866 302.666 404.666 302.666 405.066C302.666 405.6 304.933 412.4 307.6 420.266C312.133 433.066 312.933 434.533 315.333 433.866C316.8 433.333 318.133 432.8 318.4 432.666C319.066 432 308.8 402.666 308 402.8C307.6 402.933 306.266 403.2 305.066 403.6ZM279.6 410.4C271.6 412 269.333 412.933 269.6 414.533C269.866 416 271.466 416.666 274.666 416.666C277.2 416.666 279.733 417.2 280.133 418C280.666 418.666 281.733 424.266 282.8 430.266C284.4 440.4 284.666 441.333 287.6 441.333C291.333 441.333 291.466 439.066 288.666 427.333C285.866 415.6 286 414.933 291.466 413.866C294.8 413.2 296 412.4 295.733 410.8C295.2 408 292 407.866 279.6 410.4ZM213.467 414.266C208.133 434.533 207.467 438.8 209.467 440.133C212.667 442.133 214 440.666 215.467 432.8C216.4 428.666 217.333 424.8 217.867 424.4C218.533 423.733 224 435.066 226 441.2C226.533 443.2 228 444 230.533 444C234.267 444 234.267 443.866 235.2 434.266C235.6 429.066 236.4 421.866 236.8 418.266C237.6 412.533 237.467 412 234.933 412C231.733 412 230.667 414.4 230.667 421.866C230.667 425.066 230.267 428 229.733 428.533C229.2 429.066 226.667 425.066 224 419.733C218.533 408.266 215.467 406.666 213.467 414.266ZM251.333 414.933C250.933 415.866 248.667 422.8 246.133 430.266L241.467 444H244.667C246.667 444 248.133 443.066 248.667 441.333C249.333 439.2 250.667 438.666 256 438.666C261.2 438.666 262.933 439.2 264 441.333C265.6 444.266 270.666 445.066 270.533 442.266C270.533 441.466 267.867 434.666 264.8 427.333C259.867 415.6 258.8 414 255.6 413.6C253.467 413.333 251.733 413.866 251.333 414.933ZM257.2 424.266C260.533 433.066 260.4 433.333 256.133 433.333C251.6 433.333 251.2 432.266 253.6 425.733C255.467 420.533 255.733 420.4 257.2 424.266Z" fill="#EE9D00"/>
</g>
<defs>
<clipPath id="clip0_377_2">
<rect width="501.333" height="501.333" fill="white"/>
</clipPath>
</defs>
</svg>
